<svg class="main-svg" xmlns="http://www.w3.org/2000/svg" xmlns:xlink="http://www.w3.org/1999/xlink" width="650" height="650" style="" viewBox="0 0 650 650"><rect x="0" y="0" width="650" height="650" style="fill: rgb(255, 255, 255); fill-opacity: 1;"/><defs id="defs-3e8991"><g class="clips"><clipPath id="clip3e8991xyplot" class="plotclip"><rect width="490" height="456"/></clipPath><clipPath class="axesclip" id="clip3e8991x"><rect x="80" y="0" width="490" height="650"/></clipPath><clipPath class="axesclip" id="clip3e8991y"><rect x="0" y="60" width="650" height="456"/></clipPath><clipPath class="axesclip" id="clip3e8991xy"><rect x="80" y="60" width="490" height="456"/></clipPath></g><g class="gradients"/><g class="patterns"/></defs><g class="bglayer"/><g class="layer-below"><g class="imagelayer"/><g class="shapelayer"/></g><g class="cartesianlayer"><g class="subplot xy"><g class="layer-subplot"><g class="shapelayer"/><g class="imagelayer"/></g><g class="minor-gridlayer"><g class="x"/><g class="y"/></g><g class="gridlayer"><g class="x"/><g class="y"/></g><g class="zerolinelayer"/><path class="xlines-below"/><path class="ylines-below"/><g class="overlines-below"/><g class="xaxislayer-below"/><g class="yaxislayer-below"/><g class="overaxes-below"/><g class="plot" transform="translate(80,60)" clip-path="url(#clip3e8991xyplot)"><g class="scatterlayer mlayer"><g class="trace scatter trace00f68a" style="stroke-miterlimit: 2; opacity: 1;"><g class="fills"/><g class="errorbars"/><g class="lines"/><g class="points"><path class="point plotly-customdata" transform="translate(242.09,359.8)" d="M28.28,0A28.28,28.28 0 1,1 0,-28.28A28.28,28.28 0 0,1 28.28,0Z" style="opacity: 0.7; stroke-width: 2px; fill: rgb(176, 190, 197); fill-opacity: 1; stroke: rgb(47, 79, 79); stroke-opacity: 1;"/><path class="point plotly-customdata" transform="translate(224.42,333.97)" d="M13.72,0A13.72,13.72 0 1,1 0,-13.72A13.72,13.72 0 0,1 13.72,0Z" style="opacity: 0.7; stroke-width: 2px; fill: rgb(176, 190, 197); fill-opacity: 1; stroke: rgb(47, 79, 79); stroke-opacity: 1;"/><path class="point plotly-customdata" transform="translate(64.97,389.09)" d="M9.19,0A9.19,9.19 0 1,1 0,-9.19A9.19,9.19 0 0,1 9.19,0Z" style="opacity: 0.7; stroke-width: 2px; fill: rgb(176, 190, 197); fill-opacity: 1; stroke: rgb(47, 79, 79); stroke-opacity: 1;"/><path class="point plotly-customdata" transform="translate(238.63,327.13)" d="M9.05,0A9.05,9.05 0 1,1 0,-9.05A9.05,9.05 0 0,1 9.05,0Z" style="opacity: 0.7; stroke-width: 2px; fill: rgb(176, 190, 197); fill-opacity: 1; stroke: rgb(47, 79, 79); stroke-opacity: 1;"/><path class="point plotly-customdata" transform="translate(238.6,352.73)" d="M8.53,0A8.53,8.53 0 1,1 0,-8.53A8.53,8.53 0 0,1 8.53,0Z" style="opacity: 0.7; stroke-width: 2px; fill: rgb(176, 190, 197); fill-opacity: 1; stroke: rgb(47, 79, 79); stroke-opacity: 1;"/><path class="point plotly-customdata" transform="translate(239.8,324.86)" d="M8.45,0A8.45,8.45 0 1,1 0,-8.45A8.45,8.45 0 0,1 8.45,0Z" style="opacity: 0.7; stroke-width: 2px; fill: rgb(176, 190, 197); fill-opacity: 1; stroke: rgb(47, 79, 79); stroke-opacity: 1;"/><path class="point plotly-customdata" transform="translate(311.27,65.39)" d="M7.98,0A7.98,7.98 0 1,1 0,-7.98A7.98,7.98 0 0,1 7.98,0Z" style="opacity: 0.7; stroke-width: 2px; fill: rgb(176, 190, 197); fill-opacity: 1; stroke: rgb(47, 79, 79); stroke-opacity: 1;"/><path class="point plotly-customdata" transform="translate(308.58,65.26)" d="M7.9,0A7.9,7.9 0 1,1 0,-7.9A7.9,7.9 0 0,1 7.9,0Z" style="opacity: 0.7; stroke-width: 2px; fill: rgb(176, 190, 197); fill-opacity: 1; stroke: rgb(47, 79, 79); stroke-opacity: 1;"/><path class="point plotly-customdata" transform="translate(314.29,69.08)" d="M7.9,0A7.9,7.9 0 1,1 0,-7.9A7.9,7.9 0 0,1 7.9,0Z" style="opacity: 0.7; stroke-width: 2px; fill: rgb(176, 190, 197); fill-opacity: 1; stroke: rgb(47, 79, 79); stroke-opacity: 1;"/><path class="point plotly-customdata" transform="translate(233.12,343.27)" d="M7.64,0A7.64,7.64 0 1,1 0,-7.64A7.64,7.64 0 0,1 7.64,0Z" style="opacity: 0.7; stroke-width: 2px; fill: rgb(176, 190, 197); fill-opacity: 1; stroke: rgb(47, 79, 79); stroke-opacity: 1;"/><path class="point plotly-customdata" transform="translate(65.86,388.21)" d="M7.64,0A7.64,7.64 0 1,1 0,-7.64A7.64,7.64 0 0,1 7.64,0Z" style="opacity: 0.7; stroke-width: 2px; fill: rgb(176, 190, 197); fill-opacity: 1; stroke: rgb(47, 79, 79); stroke-opacity: 1;"/><path class="point plotly-customdata" transform="translate(303.24,69.68)" d="M7.47,0A7.47,7.47 0 1,1 0,-7.47A7.47,7.47 0 0,1 7.47,0Z" style="opacity: 0.7; stroke-width: 2px; fill: rgb(176, 190, 197); fill-opacity: 1; stroke: rgb(47, 79, 79); stroke-opacity: 1;"/><path class="point plotly-customdata" transform="translate(223.51,343.24)" d="M7.3,0A7.3,7.3 0 1,1 0,-7.3A7.3,7.3 0 0,1 7.3,0Z" style="opacity: 0.7; stroke-width: 2px; fill: rgb(176, 190, 197); fill-opacity: 1; stroke: rgb(47, 79, 79); stroke-opacity: 1;"/><path class="point plotly-customdata" transform="translate(438.52,438.4)" d="M6.93,0A6.93,6.93 0 1,1 0,-6.93A6.93,6.93 0 0,1 6.93,0Z" style="opacity: 0.7; stroke-width: 2px; fill: rgb(176, 190, 197); fill-opacity: 1; stroke: rgb(47, 79, 79); stroke-opacity: 1;"/><path class="point plotly-customdata" transform="translate(291.87,399.82)" d="M6.84,0A6.84,6.84 0 1,1 0,-6.84A6.84,6.84 0 0,1 6.84,0Z" style="opacity: 0.7; stroke-width: 2px; fill: rgb(176, 190, 197); fill-opacity: 1; stroke: rgb(47, 79, 79); stroke-opacity: 1;"/><path class="point plotly-customdata" transform="translate(439.72,439.6)" d="M6.74,0A6.74,6.74 0 1,1 0,-6.74A6.74,6.74 0 0,1 6.74,0Z" style="opacity: 0.7; stroke-width: 2px; fill: rgb(176, 190, 197); fill-opacity: 1; stroke: rgb(47, 79, 79); stroke-opacity: 1;"/><path class="point plotly-customdata" transform="translate(244.5,351.31)" d="M6.74,0A6.74,6.74 0 1,1 0,-6.74A6.74,6.74 0 0,1 6.74,0Z" style="opacity: 0.7; stroke-width: 2px; fill: rgb(176, 190, 197); fill-opacity: 1; stroke: rgb(47, 79, 79); stroke-opacity: 1;"/><path class="point plotly-customdata" transform="translate(14.41,90.18)" d="M6.74,0A6.74,6.74 0 1,1 0,-6.74A6.74,6.74 0 0,1 6.74,0Z" style="opacity: 0.7; stroke-width: 2px; fill: rgb(176, 190, 197); fill-opacity: 1; stroke: rgb(47, 79, 79); stroke-opacity: 1;"/><path class="point plotly-customdata" transform="translate(289.8,76.54)" d="M6.45,0A6.45,6.45 0 1,1 0,-6.45A6.45,6.45 0 0,1 6.45,0Z" style="opacity: 0.7; stroke-width: 2px; fill: rgb(176, 190, 197); fill-opacity: 1; stroke: rgb(47, 79, 79); stroke-opacity: 1;"/><path class="point plotly-customdata" transform="translate(244.68,347.16)" d="M6.45,0A6.45,6.45 0 1,1 0,-6.45A6.45,6.45 0 0,1 6.45,0Z" style="opacity: 0.7; stroke-width: 2px; fill: rgb(176, 190, 197); fill-opacity: 1; stroke: rgb(47, 79, 79); stroke-opacity: 1;"/><path class="point plotly-customdata" transform="translate(309.39,72.78)" d="M6.35,0A6.35,6.35 0 1,1 0,-6.35A6.35,6.35 0 0,1 6.35,0Z" style="opacity: 0.7; stroke-width: 2px; fill: rgb(176, 190, 197); fill-opacity: 1; stroke: rgb(47, 79, 79); stroke-opacity: 1;"/><path class="point plotly-customdata" transform="translate(229.88,349.09)" d="M6.24,0A6.24,6.24 0 1,1 0,-6.24A6.24,6.24 0 0,1 6.24,0Z" style="opacity: 0.7; stroke-width: 2px; fill: rgb(176, 190, 197); fill-opacity: 1; stroke: rgb(47, 79, 79); stroke-opacity: 1;"/><path class="point plotly-customdata" transform="translate(226.52,354.9)" d="M5.81,0A5.81,5.81 0 1,1 0,-5.81A5.81,5.81 0 0,1 5.81,0Z" style="opacity: 0.7; stroke-width: 2px; fill: rgb(176, 190, 197); fill-opacity: 1; stroke: rgb(47, 79, 79); stroke-opacity: 1;"/><path class="point plotly-customdata" transform="translate(236.51,357.2)" d="M5.7,0A5.7,5.7 0 1,1 0,-5.7A5.7,5.7 0 0,1 5.7,0Z" style="opacity: 0.7; stroke-width: 2px; fill: rgb(176, 190, 197); fill-opacity: 1; stroke: rgb(47, 79, 79); stroke-opacity: 1;"/><path class="point plotly-customdata" transform="translate(290.54,77.23)" d="M5.58,0A5.58,5.58 0 1,1 0,-5.58A5.58,5.58 0 0,1 5.58,0Z" style="opacity: 0.7; stroke-width: 2px; fill: rgb(176, 190, 197); fill-opacity: 1; stroke: rgb(47, 79, 79); stroke-opacity: 1;"/><path class="point plotly-customdata" transform="translate(214.12,345.75)" d="M5.58,0A5.58,5.58 0 1,1 0,-5.58A5.58,5.58 0 0,1 5.58,0Z" style="opacity: 0.7; stroke-width: 2px; fill: rgb(176, 190, 197); fill-opacity: 1; stroke: rgb(47, 79, 79); stroke-opacity: 1;"/><path class="point plotly-customdata" transform="translate(232.81,361.09)" d="M5.58,0A5.58,5.58 0 1,1 0,-5.58A5.58,5.58 0 0,1 5.58,0Z" style="opacity: 0.7; stroke-width: 2px; fill: rgb(176, 190, 197); fill-opacity: 1; stroke: rgb(47, 79, 79); stroke-opacity: 1;"/><path class="point plotly-customdata" transform="translate(302.37,59.84)" d="M5.47,0A5.47,5.47 0 1,1 0,-5.47A5.47,5.47 0 0,1 5.47,0Z" style="opacity: 0.7; stroke-width: 2px; fill: rgb(176, 190, 197); fill-opacity: 1; stroke: rgb(47, 79, 79); stroke-opacity: 1;"/><path class="point plotly-customdata" transform="translate(288.19,81.33)" d="M5.47,0A5.47,5.47 0 1,1 0,-5.47A5.47,5.47 0 0,1 5.47,0Z" style="opacity: 0.7; stroke-width: 2px; fill: rgb(176, 190, 197); fill-opacity: 1; stroke: rgb(47, 79, 79); stroke-opacity: 1;"/><path class="point plotly-customdata" transform="translate(293.25,401.13)" d="M5.35,0A5.35,5.35 0 1,1 0,-5.35A5.35,5.35 0 0,1 5.35,0Z" style="opacity: 0.7; stroke-width: 2px; fill: rgb(176, 190, 197); fill-opacity: 1; stroke: rgb(47, 79, 79); stroke-opacity: 1;"/><path class="point plotly-customdata" transform="translate(313.82,43.08)" d="M5.35,0A5.35,5.35 0 1,1 0,-5.35A5.35,5.35 0 0,1 5.35,0Z" style="opacity: 0.7; stroke-width: 2px; fill: rgb(176, 190, 197); fill-opacity: 1; stroke: rgb(47, 79, 79); stroke-opacity: 1;"/><path class="point plotly-customdata" transform="translate(13.63,89.4)" d="M5.22,0A5.22,5.22 0 1,1 0,-5.22A5.22,5.22 0 0,1 5.22,0Z" style="opacity: 0.7; stroke-width: 2px; fill: rgb(176, 190, 197); fill-opacity: 1; stroke: rgb(47, 79, 79); stroke-opacity: 1;"/><path class="point plotly-customdata" transform="translate(312.92,46.06)" d="M5.22,0A5.22,5.22 0 1,1 0,-5.22A5.22,5.22 0 0,1 5.22,0Z" style="opacity: 0.7; stroke-width: 2px; fill: rgb(176, 190, 197); fill-opacity: 1; stroke: rgb(47, 79, 79); stroke-opacity: 1;"/></g><g class="text"/></g></g></g><g class="overplot"/><path class="xlines-above crisp" d="M0,0" style="fill: none;"/><path class="ylines-above crisp" d="M0,0" style="fill: none;"/><g class="overlines-above"/><g class="xaxislayer-above"/><g class="yaxislayer-above"/><g class="overaxes-above"/></g></g><g class="polarlayer"/><g class="smithlayer"/><g class="ternarylayer"/><g class="geolayer"/><g class="funnelarealayer"/><g class="pielayer"/><g class="iciclelayer"/><g class="treemaplayer"/><g class="sunburstlayer"/><g class="glimages"/><defs id="topdefs-3e8991"><g class="clips"/></defs><g class="layer-above"><g class="imagelayer"/><g class="shapelayer"><g class="shape-group" data-index="0" clip-path="url(#clip3e8991xy)"><path data-index="0" fill-rule="evenodd" d="M325,516L325,60" style="opacity: 0.3; stroke: rgb(207, 216, 220); stroke-opacity: 1; fill: rgb(0, 0, 0); fill-opacity: 1; stroke-width: 2px;"/></g><g class="shape-group" data-index="1" clip-path="url(#clip3e8991xy)"><path data-index="1" fill-rule="evenodd" d="M80,288L570,288" style="opacity: 0.3; stroke: rgb(158, 158, 158); stroke-opacity: 1; fill: rgb(0, 0, 0); fill-opacity: 1; stroke-width: 2px;"/></g></g></g><g class="infolayer"><g class="slider-container"><g class="slider-group" transform="translate(80,566)"><text class="slider-label" text-anchor="left" data-notex="1" x="0" y="15.600000000000001" style="font-family: 'Open Sans', verdana, arial, sans-serif; font-size: 12px; fill: rgb(36, 36, 36); fill-opacity: 1; white-space: pre;">Topic 0</text><rect class="slider-rail-rect" width="474" height="5" rx="2" ry="2" shape-rendering="crispEdges" transform="translate(8,32.5)" style="stroke: rgb(190, 200, 217); stroke-opacity: 1; fill: rgb(248, 250, 252); fill-opacity: 1; stroke-width: 1px;"/><g class="slider-labels"><g class="slider-label-group" transform="translate(10,72.6)"><text class="slider-label" text-anchor="middle" data-notex="1" x="0" y="0" style="font-family: 'Open Sans', verdana, arial, sans-serif; font-size: 12px; fill: rgb(36, 36, 36); fill-opacity: 1; white-space: pre;">Topic 0</text></g><g class="slider-label-group" transform="translate(83.4375,72.6)"><text class="slider-label" text-anchor="middle" data-notex="1" x="0" y="0" style="font-family: 'Open Sans', verdana, arial, sans-serif; font-size: 12px; fill: rgb(36, 36, 36); fill-opacity: 1; white-space: pre;">Topic 5</text></g><g class="slider-label-group" transform="translate(156.875,72.6)"><text class="slider-label" text-anchor="middle" data-notex="1" x="0" y="0" style="font-family: 'Open Sans', verdana, arial, sans-serif; font-size: 12px; fill: rgb(36, 36, 36); fill-opacity: 1; white-space: pre;">Topic 10</text></g><g class="slider-label-group" transform="translate(230.3125,72.6)"><text class="slider-label" text-anchor="middle" data-notex="1" x="0" y="0" style="font-family: 'Open Sans', verdana, arial, sans-serif; font-size: 12px; fill: rgb(36, 36, 36); fill-opacity: 1; white-space: pre;">Topic 15</text></g><g class="slider-label-group" transform="translate(303.75,72.6)"><text class="slider-label" text-anchor="middle" data-notex="1" x="0" y="0" style="font-family: 'Open Sans', verdana, arial, sans-serif; font-size: 12px; fill: rgb(36, 36, 36); fill-opacity: 1; white-space: pre;">Topic 20</text></g><g class="slider-label-group" transform="translate(377.1875,72.6)"><text class="slider-label" text-anchor="middle" data-notex="1" x="0" y="0" style="font-family: 'Open Sans', verdana, arial, sans-serif; font-size: 12px; fill: rgb(36, 36, 36); fill-opacity: 1; white-space: pre;">Topic 25</text></g><g class="slider-label-group" transform="translate(450.625,72.6)"><text class="slider-label" text-anchor="middle" data-notex="1" x="0" y="0" style="font-family: 'Open Sans', verdana, arial, sans-serif; font-size: 12px; fill: rgb(36, 36, 36); fill-opacity: 1; white-space: pre;">Topic 30</text></g></g><rect class="slider-tick-rect" width="1px" shape-rendering="crispEdges" height="7" transform="translate(9.5,50)" style="fill: rgb(51, 51, 51); fill-opacity: 1;"/><rect class="slider-tick-rect" width="1px" shape-rendering="crispEdges" height="4" transform="translate(24.1875,50)" style="fill: rgb(51, 51, 51); fill-opacity: 1;"/><rect class="slider-tick-rect" width="1px" shape-rendering="crispEdges" height="4" transform="translate(38.875,50)" style="fill: rgb(51, 51, 51); fill-opacity: 1;"/><rect class="slider-tick-rect" width="1px" shape-rendering="crispEdges" height="4" transform="translate(53.5625,50)" style="fill: rgb(51, 51, 51); fill-opacity: 1;"/><rect class="slider-tick-rect" width="1px" shape-rendering="crispEdges" height="4" transform="translate(68.25,50)" style="fill: rgb(51, 51, 51); fill-opacity: 1;"/><rect class="slider-tick-rect" width="1px" shape-rendering="crispEdges" height="7" transform="translate(82.9375,50)" style="fill: rgb(51, 51, 51); fill-opacity: 1;"/><rect class="slider-tick-rect" width="1px" shape-rendering="crispEdges" height="4" transform="translate(97.625,50)" style="fill: rgb(51, 51, 51); fill-opacity: 1;"/><rect class="slider-tick-rect" width="1px" shape-rendering="crispEdges" height="4" transform="translate(112.3125,50)" style="fill: rgb(51, 51, 51); fill-opacity: 1;"/><rect class="slider-tick-rect" width="1px" shape-rendering="crispEdges" height="4" transform="translate(127,50)" style="fill: rgb(51, 51, 51); fill-opacity: 1;"/><rect class="slider-tick-rect" width="1px" shape-rendering="crispEdges" height="4" transform="translate(141.6875,50)" style="fill: rgb(51, 51, 51); fill-opacity: 1;"/><rect class="slider-tick-rect" width="1px" shape-rendering="crispEdges" height="7" transform="translate(156.375,50)" style="fill: rgb(51, 51, 51); fill-opacity: 1;"/><rect class="slider-tick-rect" width="1px" shape-rendering="crispEdges" height="4" transform="translate(171.0625,50)" style="fill: rgb(51, 51, 51); fill-opacity: 1;"/><rect class="slider-tick-rect" width="1px" shape-rendering="crispEdges" height="4" transform="translate(185.75,50)" style="fill: rgb(51, 51, 51); fill-opacity: 1;"/><rect class="slider-tick-rect" width="1px" shape-rendering="crispEdges" height="4" transform="translate(200.4375,50)" style="fill: rgb(51, 51, 51); fill-opacity: 1;"/><rect class="slider-tick-rect" width="1px" shape-rendering="crispEdges" height="4" transform="translate(215.125,50)" style="fill: rgb(51, 51, 51); fill-opacity: 1;"/><rect class="slider-tick-rect" width="1px" shape-rendering="crispEdges" height="7" transform="translate(229.8125,50)" style="fill: rgb(51, 51, 51); fill-opacity: 1;"/><rect class="slider-tick-rect" width="1px" shape-rendering="crispEdges" height="4" transform="translate(244.5,50)" style="fill: rgb(51, 51, 51); fill-opacity: 1;"/><rect class="slider-tick-rect" width="1px" shape-rendering="crispEdges" height="4" transform="translate(259.1875,50)" style="fill: rgb(51, 51, 51); fill-opacity: 1;"/><rect class="slider-tick-rect" width="1px" shape-rendering="crispEdges" height="4" transform="translate(273.875,50)" style="fill: rgb(51, 51, 51); fill-opacity: 1;"/><rect class="slider-tick-rect" width="1px" shape-rendering="crispEdges" height="4" transform="translate(288.5625,50)" style="fill: rgb(51, 51, 51); fill-opacity: 1;"/><rect class="slider-tick-rect" width="1px" shape-rendering="crispEdges" height="7" transform="translate(303.25,50)" style="fill: rgb(51, 51, 51); fill-opacity: 1;"/><rect class="slider-tick-rect" width="1px" shape-rendering="crispEdges" height="4" transform="translate(317.9375,50)" style="fill: rgb(51, 51, 51); fill-opacity: 1;"/><rect class="slider-tick-rect" width="1px" shape-rendering="crispEdges" height="4" transform="translate(332.625,50)" style="fill: rgb(51, 51, 51); fill-opacity: 1;"/><rect class="slider-tick-rect" width="1px" shape-rendering="crispEdges" height="4" transform="translate(347.3125,50)" style="fill: rgb(51, 51, 51); fill-opacity: 1;"/><rect class="slider-tick-rect" width="1px" shape-rendering="crispEdges" height="4" transform="translate(362,50)" style="fill: rgb(51, 51, 51); fill-opacity: 1;"/><rect class="slider-tick-rect" width="1px" shape-rendering="crispEdges" height="7" transform="translate(376.6875,50)" style="fill: rgb(51, 51, 51); fill-opacity: 1;"/><rect class="slider-tick-rect" width="1px" shape-rendering="crispEdges" height="4" transform="translate(391.375,50)" style="fill: rgb(51, 51, 51); fill-opacity: 1;"/><rect class="slider-tick-rect" width="1px" shape-rendering="crispEdges" height="4" transform="translate(406.0625,50)" style="fill: rgb(51, 51, 51); fill-opacity: 1;"/><rect class="slider-tick-rect" width="1px" shape-rendering="crispEdges" height="4" transform="translate(420.75,50)" style="fill: rgb(51, 51, 51); fill-opacity: 1;"/><rect class="slider-tick-rect" width="1px" shape-rendering="crispEdges" height="4" transform="translate(435.4375,50)" style="fill: rgb(51, 51, 51); fill-opacity: 1;"/><rect class="slider-tick-rect" width="1px" shape-rendering="crispEdges" height="7" transform="translate(450.125,50)" style="fill: rgb(51, 51, 51); fill-opacity: 1;"/><rect class="slider-tick-rect" width="1px" shape-rendering="crispEdges" height="4" transform="translate(464.8125,50)" style="fill: rgb(51, 51, 51); fill-opacity: 1;"/><rect class="slider-tick-rect" width="1px" shape-rendering="crispEdges" height="4" transform="translate(479.5,50)" style="fill: rgb(51, 51, 51); fill-opacity: 1;"/><rect class="slider-rail-touch-rect" width="490" height="46.5" opacity="0" transform="translate(0,25)" style="pointer-events: all; fill: rgb(248, 250, 252); fill-opacity: 1;"/><rect class="slider-grip-rect" width="20" height="20" rx="10" ry="10" transform="translate(0,25)" style="pointer-events: all; stroke: rgb(190, 200, 217); stroke-opacity: 1; fill: rgb(248, 250, 252); fill-opacity: 1; stroke-width: 1px;"/></g></g><g class="g-gtitle"><text class="gtitle" x="325" y="32.5" text-anchor="middle" dy="0.7em" style="font-family: 'Open Sans', verdana, arial, sans-serif; font-size: 22px; fill: rgb(0, 0, 0); opacity: 1; font-weight: normal; white-space: pre;"><tspan style="font-weight:bold">Intertopic Distance Map</tspan></text></g><g class="annotation" data-index="0" style="opacity: 1;"><g class="annotation-text-g" transform="rotate(0,80,278)"><g class="cursor-pointer" transform="translate(70,269)"><rect class="bg" x="0.5" y="0.5" width="20" height="18" style="stroke-width: 1px; stroke: rgb(0, 0, 0); stroke-opacity: 0; fill: rgb(0, 0, 0); fill-opacity: 0;"/><text class="annotation-text" text-anchor="middle" x="10.4375" y="14" style="font-family: 'Open Sans', verdana, arial, sans-serif; font-size: 12px; fill: rgb(36, 36, 36); fill-opacity: 1; white-space: pre;">D1</text></g></g></g><g class="annotation" data-index="1" style="opacity: 1;"><g class="annotation-text-g" transform="rotate(0,335,60)"><g class="cursor-pointer" transform="translate(325,51)"><rect class="bg" x="0.5" y="0.5" width="20" height="18" style="stroke-width: 1px; stroke: rgb(0, 0, 0); stroke-opacity: 0; fill: rgb(0, 0, 0); fill-opacity: 0;"/><text class="annotation-text" text-anchor="middle" x="10.4375" y="14" style="font-family: 'Open Sans', verdana, arial, sans-serif; font-size: 12px; fill: rgb(36, 36, 36); fill-opacity: 1; white-space: pre;">D2</text></g></g></g></g></svg>