<?xml version="1.0" encoding="utf-8"?>
<!-- Generator: Adobe Illustrator 28.3.0, SVG Export Plug-In . SVG Version: 6.00 Build 0)  -->
<svg version="1.1" id="图层_1" xmlns="http://www.w3.org/2000/svg" xmlns:xlink="http://www.w3.org/1999/xlink" x="0px" y="0px"
	 viewBox="0 0 650 650" style="enable-background:new 0 0 650 650;" xml:space="preserve">
<style type="text/css">
	.st0{fill:#FFFFFF;}
	.st1{clip-path:url(#SVGID_00000072979510855956075950000014976018484091106716_);}
	.st2{opacity:0.7;fill:#B0BEC5;stroke:#2F4F4F;stroke-width:2;stroke-miterlimit:2;enable-background:new    ;}
	.st3{fill:none;}
	.st4{clip-path:url(#SVGID_00000170276556875940385430000018100360222348619415_);}
	.st5{opacity:0.3;fill-rule:evenodd;clip-rule:evenodd;stroke:#CFD8DC;stroke-width:2;enable-background:new    ;}
	.st6{clip-path:url(#SVGID_00000146468955437794970590000013654687062470439041_);}
	.st7{opacity:0.3;fill-rule:evenodd;clip-rule:evenodd;stroke:#9E9E9E;stroke-width:2;enable-background:new    ;}
	.st8{fill:#242424;}
	.st9{font-family:'Verdana';}
	.st10{font-size:12px;}
	.st11{fill:#F8FAFC;stroke:#BEC8D9;}
	.st12{fill:#333333;}
	.st13{fill:#F8FAFC;fill-opacity:0;}
	.st14{font-family:'Verdana-Bold';}
	.st15{font-size:22px;}
	.st16{fill-opacity:0;stroke:#000000;stroke-opacity:0;}
</style>
<rect class="st0" width="650" height="650"/>
<g>
	<g>
		<path class="st0" d="M0,0"/>
		<path class="st0" d="M0,0"/>
		<g>
			<defs>
				<rect id="SVGID_1_" x="80" y="60" width="490" height="472.1"/>
			</defs>
			<clipPath id="SVGID_00000075846287141723127680000005867634847374818213_">
				<use xlink:href="#SVGID_1_"  style="overflow:visible;"/>
			</clipPath>
			<g transform="translate(80,60)" style="clip-path:url(#SVGID_00000075846287141723127680000005867634847374818213_);">
				<g>
					<g>
						<g>
							<path class="st2" d="M218.6,439.9c0,15.6-12.7,28.3-28.3,28.3s-28.3-12.7-28.3-28.3s12.7-28.3,28.3-28.3
								S218.6,424.3,218.6,439.9L218.6,439.9z"/>
							<path class="st2" d="M192.8,437.2c0,3.8-3.1,6.9-6.9,6.9s-6.9-3.1-6.9-6.9s3.1-6.9,6.9-6.9S192.8,433.4,192.8,437.2
								L192.8,437.2z"/>
							<path class="st2" d="M421.1,179c0,1.8-1.5,3.3-3.3,3.3s-3.3-1.5-3.3-3.3s1.5-3.3,3.3-3.3S421.1,177.2,421.1,179L421.1,179z"
								/>
							<path class="st2" d="M100.3,312.3c0,1.8-1.4,3.2-3.2,3.2s-3.2-1.4-3.2-3.2s1.4-3.2,3.2-3.2c0,0,0,0,0,0
								C98.9,309,100.3,310.5,100.3,312.3z"/>
							<path class="st2" d="M104,314.7c0,1.7-1.4,3-3.1,3s-3.1-1.4-3.1-3s1.4-3,3.1-3l0,0C102.7,311.6,104,313,104,314.7z"/>
							<path class="st2" d="M408.4,182.7c0,1.6-1.3,3-3,3s-3-1.3-3-3s1.3-3,3-3c0,0,0,0,0,0C407.1,179.8,408.4,181.1,408.4,182.7z"
								/>
							<path class="st2" d="M113.7,315.9c0,1.6-1.3,2.9-2.9,2.9s-2.9-1.3-2.9-2.9s1.3-2.9,2.9-2.9c0,0,0,0,0,0
								C112.4,313.1,113.7,314.4,113.7,315.9z"/>
							<path class="st2" d="M24.3,257.8c0,1.3-1.1,2.4-2.4,2.4s-2.4-1.1-2.4-2.4s1.1-2.4,2.4-2.4l0,0
								C23.2,255.4,24.3,256.4,24.3,257.8z"/>
							<path class="st2" d="M422.3,184.4c0,0.9-0.8,1.7-1.7,1.7s-1.7-0.8-1.7-1.7s0.8-1.7,1.7-1.7S422.3,183.4,422.3,184.4
								C422.3,184.4,422.3,184.4,422.3,184.4z"/>
							<path class="st2" d="M93.9,323c0,0.9-0.7,1.6-1.6,1.6s-1.6-0.7-1.6-1.6s0.7-1.6,1.6-1.6S93.9,322.1,93.9,323
								C93.9,323,93.9,323,93.9,323z"/>
							<path class="st2" d="M409.6,175.8c0,0.9-0.7,1.5-1.5,1.5s-1.5-0.7-1.5-1.5s0.7-1.5,1.5-1.5l0,0
								C408.9,174.3,409.6,175,409.6,175.8z"/>
							<path class="st2" d="M21.2,256.5c0,0.8-0.6,1.4-1.4,1.4s-1.4-0.6-1.4-1.4s0.6-1.4,1.4-1.4l0,0
								C20.5,255.1,21.2,255.7,21.2,256.5z"/>
							<path class="st2" d="M418.3,188.1c0,0.8-0.6,1.4-1.4,1.4s-1.4-0.6-1.4-1.4s0.6-1.4,1.4-1.4S418.3,187.4,418.3,188.1
								L418.3,188.1z"/>
							<path class="st2" d="M430.4,177.9c0,0.7-0.6,1.3-1.3,1.3s-1.3-0.6-1.3-1.3s0.6-1.3,1.3-1.3c0,0,0,0,0,0
								C429.8,176.5,430.4,177.1,430.4,177.9z"/>
							<path class="st2" d="M380.1,183.4c0,0.7-0.6,1.3-1.3,1.3s-1.3-0.6-1.3-1.3s0.6-1.3,1.3-1.3c0,0,0,0,0,0
								C379.6,182.1,380.1,182.7,380.1,183.4z"/>
							<path class="st2" d="M183.9,435.2c0,0.7-0.6,1.3-1.3,1.3s-1.3-0.6-1.3-1.3s0.6-1.3,1.3-1.3S183.9,434.5,183.9,435.2
								C183.9,435.2,183.9,435.2,183.9,435.2z"/>
							<path class="st2" d="M385.3,181.3c0,0.7-0.6,1.3-1.3,1.3s-1.3-0.6-1.3-1.3s0.6-1.3,1.3-1.3S385.3,180.6,385.3,181.3
								C385.3,181.3,385.3,181.3,385.3,181.3z"/>
							<path class="st2" d="M95.2,321.8c0,0.7-0.6,1.3-1.3,1.3s-1.3-0.6-1.3-1.3s0.6-1.3,1.3-1.3S95.2,321.1,95.2,321.8
								C95.2,321.8,95.2,321.8,95.2,321.8z"/>
							<path class="st2" d="M102.2,311.4c0,0.7-0.6,1.2-1.2,1.2s-1.2-0.6-1.2-1.2s0.6-1.2,1.2-1.2S102.2,310.7,102.2,311.4z"/>
							<path class="st2" d="M430.3,180.3c0,0.7-0.5,1.2-1.2,1.2s-1.2-0.5-1.2-1.2s0.5-1.2,1.2-1.2c0,0,0,0,0,0
								C429.8,179.1,430.3,179.6,430.3,180.3z"/>
							<path class="st2" d="M247.1,43.4c0,0.7-0.5,1.2-1.2,1.2s-1.2-0.5-1.2-1.2s0.5-1.2,1.2-1.2c0,0,0,0,0,0
								C246.5,42.2,247.1,42.7,247.1,43.4z"/>
							<path class="st2" d="M335.5,370c0,0.6-0.5,1.1-1.1,1.1s-1.1-0.5-1.1-1.1s0.5-1.1,1.1-1.1l0,0
								C335,368.9,335.5,369.4,335.5,370z"/>
							<path class="st2" d="M442.7,169.4c0,0.6-0.5,1.1-1.1,1.1s-1.1-0.5-1.1-1.1s0.5-1.1,1.1-1.1l0,0
								C442.2,168.2,442.7,168.7,442.7,169.4z"/>
							<path class="st2" d="M335.5,370c0,0.6-0.5,1.1-1.1,1.1s-1.1-0.5-1.1-1.1s0.5-1.1,1.1-1.1c0,0,0,0,0,0
								C335,369,335.5,369.4,335.5,370z"/>
							<path class="st2" d="M247,43.4c0,0.6-0.5,1.1-1.1,1.1s-1.1-0.5-1.1-1.1s0.5-1.1,1.1-1.1c0,0,0,0,0,0
								C246.5,42.3,247,42.8,247,43.4z"/>
							<path class="st2" d="M426.3,174c0,0.6-0.5,1.1-1.1,1.1s-1.1-0.5-1.1-1.1s0.5-1.1,1.1-1.1c0,0,0,0,0,0
								C425.8,172.9,426.3,173.4,426.3,174z"/>
							<path class="st2" d="M446.9,166.5c0,0.6-0.5,1.1-1,1.1s-1-0.5-1-1.1s0.5-1.1,1-1.1S446.9,166,446.9,166.5
								C446.9,166.5,446.9,166.5,446.9,166.5z"/>
						</g>
					</g>
				</g>
			</g>
		</g>
		<path class="st3" d="M0,0"/>
		<path class="st3" d="M0,0"/>
	</g>
</g>
<g>
	<g>
		<g>
			<defs>
				<rect id="SVGID_00000162329740695214727070000003161375600758444950_" x="80" y="60" width="490" height="456"/>
			</defs>
			<clipPath id="SVGID_00000177471358540483866120000016640189292970124474_">
				<use xlink:href="#SVGID_00000162329740695214727070000003161375600758444950_"  style="overflow:visible;"/>
			</clipPath>
			<g style="clip-path:url(#SVGID_00000177471358540483866120000016640189292970124474_);">
				<path class="st5" d="M325,516V60"/>
			</g>
		</g>
		<g>
			<defs>
				<rect id="SVGID_00000116195379364346495210000016224874669201842584_" x="80" y="60" width="490" height="456"/>
			</defs>
			<clipPath id="SVGID_00000124163233243897273330000005124897106601999779_">
				<use xlink:href="#SVGID_00000116195379364346495210000016224874669201842584_"  style="overflow:visible;"/>
			</clipPath>
			<g style="clip-path:url(#SVGID_00000124163233243897273330000005124897106601999779_);">
				<path class="st7" d="M80,288h490"/>
			</g>
		</g>
	</g>
</g>
<g>
	<g>
		<g transform="translate(80,566)">
			<text transform="matrix(1 0 0 1 0 15.6)" class="st8 st9 st10">Topic 0</text>
			<path shape-rendering="crispEdges" class="st11" d="M10,32.5h470c1.1,0,2,0.9,2,2v1c0,1.1-0.9,2-2,2H10c-1.1,0-2-0.9-2-2v-1
				C8,33.4,8.9,32.5,10,32.5z"/>
			<g>
				<g transform="translate(10,72.6)">
					<text transform="matrix(1 0 0 1 -21.1289 -2.241406e-05)" class="st8 st9 st10">Topic 0</text>
				</g>
				<g transform="translate(82.3076923076923,72.6)">
					<text transform="matrix(1 0 0 1 -21.1289 -2.241406e-05)" class="st8 st9 st10">Topic 4</text>
				</g>
				<g transform="translate(154.6153846153846,72.6)">
					<text transform="matrix(1 0 0 1 -21.1289 -2.241406e-05)" class="st8 st9 st10">Topic 8</text>
				</g>
				<g transform="translate(226.92307692307693,72.6)">
					<text transform="matrix(1 0 0 1 -24.9433 -2.241406e-05)" class="st8 st9 st10">Topic 12</text>
				</g>
				<g transform="translate(299.2307692307692,72.6)">
					<text transform="matrix(1 0 0 1 -24.9434 -2.241406e-05)" class="st8 st9 st10">Topic 16</text>
				</g>
				<g transform="translate(371.53846153846155,72.6)">
					<text transform="matrix(1 0 0 1 -24.9434 -2.241406e-05)" class="st8 st9 st10">Topic 20</text>
				</g>
				<g transform="translate(443.84615384615387,72.6)">
					<text transform="matrix(1 0 0 1 -24.9433 -2.241406e-05)" class="st8 st9 st10">Topic 24</text>
				</g>
			</g>
			<rect x="9.5" y="50" shape-rendering="crispEdges" class="st12" width="1" height="7"/>
			<rect x="27.6" y="50" shape-rendering="crispEdges" class="st12" width="1" height="4"/>
			<rect x="45.7" y="50" shape-rendering="crispEdges" class="st12" width="1" height="4"/>
			<rect x="63.7" y="50" shape-rendering="crispEdges" class="st12" width="1" height="4"/>
			<rect x="81.8" y="50" shape-rendering="crispEdges" class="st12" width="1" height="7"/>
			<rect x="99.9" y="50" shape-rendering="crispEdges" class="st12" width="1" height="4"/>
			<rect x="118" y="50" shape-rendering="crispEdges" class="st12" width="1" height="4"/>
			<rect x="136" y="50" shape-rendering="crispEdges" class="st12" width="1" height="4"/>
			<rect x="154.1" y="50" shape-rendering="crispEdges" class="st12" width="1" height="7"/>
			<rect x="172.2" y="50" shape-rendering="crispEdges" class="st12" width="1" height="4"/>
			<rect x="190.3" y="50" shape-rendering="crispEdges" class="st12" width="1" height="4"/>
			<rect x="208.3" y="50" shape-rendering="crispEdges" class="st12" width="1" height="4"/>
			<rect x="226.4" y="50" shape-rendering="crispEdges" class="st12" width="1" height="7"/>
			<rect x="244.5" y="50" shape-rendering="crispEdges" class="st12" width="1" height="4"/>
			<rect x="262.6" y="50" shape-rendering="crispEdges" class="st12" width="1" height="4"/>
			<rect x="280.7" y="50" shape-rendering="crispEdges" class="st12" width="1" height="4"/>
			<rect x="298.7" y="50" shape-rendering="crispEdges" class="st12" width="1" height="7"/>
			<rect x="316.8" y="50" shape-rendering="crispEdges" class="st12" width="1" height="4"/>
			<rect x="334.9" y="50" shape-rendering="crispEdges" class="st12" width="1" height="4"/>
			<rect x="353" y="50" shape-rendering="crispEdges" class="st12" width="1" height="4"/>
			<rect x="371" y="50" shape-rendering="crispEdges" class="st12" width="1" height="7"/>
			<rect x="389.1" y="50" shape-rendering="crispEdges" class="st12" width="1" height="4"/>
			<rect x="407.2" y="50" shape-rendering="crispEdges" class="st12" width="1" height="4"/>
			<rect x="425.3" y="50" shape-rendering="crispEdges" class="st12" width="1" height="4"/>
			<rect x="443.3" y="50" shape-rendering="crispEdges" class="st12" width="1" height="7"/>
			<rect x="461.4" y="50" shape-rendering="crispEdges" class="st12" width="1" height="4"/>
			<rect x="479.5" y="50" shape-rendering="crispEdges" class="st12" width="1" height="4"/>
			<rect x="0" y="25" class="st13" width="490" height="46.5"/>
			<path class="st11" d="M10,25L10,25c5.5,0,10,4.5,10,10l0,0c0,5.5-4.5,10-10,10l0,0C4.5,45,0,40.5,0,35l0,0C0,29.5,4.5,25,10,25z"
				/>
		</g>
	</g>
	<g>
		<text transform="matrix(1 0 0 1 176.5161 47.9)" class="st14 st15">Intertopic Distance Map</text>
	</g>
	<g>
		<g transform="rotate(0,80,278)">
			<g transform="translate(70,269)">
				<rect x="0.5" y="0.5" class="st16" width="20" height="18"/>
				<text transform="matrix(1 0 0 1 2 14)" class="st8 st9 st10">D1</text>
			</g>
		</g>
	</g>
	<g>
		<g transform="rotate(0,335,60)">
			<g transform="translate(325,51)">
				<rect x="0.5" y="0.5" class="st16" width="20" height="18"/>
				<text transform="matrix(1 0 0 1 2 14)" class="st8 st9 st10">D2</text>
			</g>
		</g>
	</g>
</g>
</svg>
